<svg xmlns="http://www.w3.org/2000/svg"><symbol id="smiley" viewBox="0 0 798.9 711.2"><title>smiley</title><path class="smiley-background" d="M544.6 675.9c-71.3 30.8-158.6 40.9-236 32.7-40.1-4.3-86.5-18-121.7-38-19.3-11-37.4-23.7-55.2-36.8-18.7-13.7-36.9-24.8-52.2-42.5-22.4-25.9-41.5-56.5-50.3-89-4.4-16.2-15.1-29.6-19.5-46.3-5.1-19.5-11-38.9-9-59.4 7.5-76.7 17.9-166.3 66.7-229 20.9-26.8 41.5-57.8 68.9-78.5 13.4-10.2 26.4-20.5 39.8-30.4 6.9-5.1 14.8-8.5 21.7-13.7 7.9-6 12.4-6.4 21.5-9.6 7.7-2.7 12.6-9.4 20-12.7 7.2-3.3 16-4.4 23.6-7.1 21.6-7.5 43.5-10.5 66.3-9.8 39.7 1.2 78.7-8.4 119-2.9 18.1 2.5 36.3 4.6 54.4 6.9 22.6 2.9 41.9 9.9 63.7 15.8 16.6 4.5 32.9 11.8 48.1 19.8 8.9 4.7 16.6 11.9 25.1 16.4 9.9 5.2 20.8 7.1 30.7 13.1 73.7 44.9 114.4 120.4 126.3 204.5 6.6 46.6-3.2 89.9-11.8 135.2-7.7 40.5-26.6 76.2-44.6 112.9-18.4 37.5-54.1 72.1-88.7 94.8-18.5 12.2-38.1 22.8-57.1 34.1-5.2 3.2-48.1 23.1-49.7 19.5z"/><path class="smiley-face" d="M544.6 675.9c-71.3 30.8-158.6 40.9-236 32.7-40.1-4.3-86.5-18-121.7-38-19.3-11-37.4-23.7-55.2-36.8-18.7-13.7-36.9-24.8-52.2-42.5-22.4-25.9-41.5-56.5-50.3-89-4.4-16.2-15.1-29.6-19.5-46.3-5.1-19.5-11-38.9-9-59.4 7.5-76.7 17.9-166.3 66.7-229 20.9-26.8 41.5-57.8 68.9-78.5 13.4-10.2 26.4-20.5 39.8-30.4 6.9-5.1 14.8-8.5 21.7-13.7 7.9-6 12.4-6.4 21.5-9.6 7.7-2.7 12.6-9.4 20-12.7 7.2-3.3 16-4.4 23.6-7.1 21.6-7.5 43.5-10.5 66.3-9.8 39.7 1.2 78.7-8.4 119-2.9 18.1 2.5 36.3 4.6 54.4 6.9 22.6 2.9 41.9 9.9 63.7 15.8 16.6 4.5 32.9 11.8 48.1 19.8 8.9 4.7 16.6 11.9 25.1 16.4 9.9 5.2 20.8 7.1 30.7 13.1 73.7 44.9 114.4 120.4 126.3 204.5 6.6 46.6-3.2 89.9-11.8 135.2-7.7 40.5-26.6 76.2-44.6 112.9-18.4 37.5-54.1 72.1-88.7 94.8-18.5 12.2-38.1 22.8-57.1 34.1-5.2 3.2-48.1 23.1-49.7 19.5zM243.9 66.6c-1.7-8.7-41.3 17.2-44.5 19.7-13.3 10.3-27.6 18.4-40.5 29.1-22.3 18.4-46.7 42.8-62.2 67.7-10.5 16.9-21.9 35-28.8 53.7-6.7 18.3-10.2 37.4-16.3 55.7-5.8 17.2-6.2 35.1-9 53.2-3.4 21.8-6.7 43.1-4.8 65.2 1.6 18.1 6.9 36.9 13.5 53.8 3 7.6 6.1 13.9 7.3 22 1.5 11.1 2.8 12.5 8.9 22.2 3.3 5.2 4.9 10.8 7.5 16.3 3.2 6.9 8.2 10.7 12.7 16.5 5.2 6.6 8.7 14.3 14.2 20.8 6.2 7.3 13.9 12 20.7 18.5 9.3 9 19.2 17.3 30 24.3 7.5 4.8 15.3 9.1 22.9 13.7 8 4.9 13.4 12.9 21.3 17.3 14.4 8.1 34.6 12.7 50.2 18.2 18.9 6.6 37 10.3 56.3 15.5 36.6 9.7 80.8 5 118 .1 34-4.5 67.7-14.5 101.4-22 20.1-4.5 36.2-17.1 54.6-25.5 18.1-8.2 35.3-17.1 52.2-27.6 30.6-19 56.1-48.7 76.6-78.1 10.9-15.7 20.6-35.1 27.4-52.9 2.7-7 4.5-13.6 7.9-20.1 4.7-8.9 4.4-16.3 6.4-26.9 2.5-13.2 6.8-24.7 8.8-37.8.9-5.5 2.3-10.3 2.9-15.8 1.1-11.3 3.3-20.6 5-31.6 2.6-16.7-.2-38.9-2.9-55.3-3-17.8-7.2-34.8-11.7-52.2-8.6-33.6-38.4-70.6-63.6-92.7-13-11.4-28.2-20.3-43.5-29.1-16.2-9.5-34.6-20.5-52.5-26.3-8.1-2.7-12.7-7.9-20.3-10.9-1.2-.5-3.8 1.2-5.5.9-5.5-1.2-12.5-5.4-17.6-7.6-16.3-7-37.8-11.4-55.7-12.8-19.6-1.5-39.1-4.5-58.7-5.3-21.7-.8-42.1.9-63.6 2.8-21 1.8-43.4.4-64.1 4.5-21.5 4.3-39.5 18.8-60.9 18.8zm233.8 455c-27.1 4.2-53.3 8.2-80.9 6.4-26.4-1.7-53.7-11.1-79.4-17.3-25.1-6.1-52.3-13.3-74.3-27.1-14.2-8.9-29.7-13.2-44.3-21.7-18.2-10.5-33.5-24.9-50-37.7-12.9-9.9-47.6-22.6-40.5-42.6 10.2-28.9 38.3 1.3 52.2 9.4 18.5 10.9 34.5 25.5 52.3 37.4 38.8 26 87.3 39.4 130.6 53.1 40.4 12.7 94.3 14.1 134.6 1.6 42-13 82.3-38.3 115.4-66.9 16.1-13.9 26-32.5 36.3-50.5 3.4-5.9 9.5-19.7 19-19.2 9.3.4 6.4 8.2 9.1 14.9 3.8 9.6 7.6 10.1 4.5 21.3-3.6 13-12.4 18-19.6 27.8-12.6 17-22.9 32.8-40.3 46.7-19.7 15.7-42.8 31.1-65.4 41.6-5.1 2.4-59.2 23.4-59.3 22.8zm-26.7-110c-16.5-4.7-34.5-5.7-50.5-11.8-16.7-6.4-34.7-19.4-48.5-31.2-10.5-9-20.3-26.3-.9-32.4 12.9-4.1 27.2 13.3 38.5 19.4 14.9 8 28.3 13.8 44.5 18.5 17.8 5.1 28.5 6 40.6-10.5 19.4-26.4-14.2-65.5-27.4-87.8-11-18.6-65.5-56.7-42.9-79.6 14.5-14.7 24.6 2.5 33.2 13.6 11.8 15.1 25.3 29.4 36.4 44.9 18.8 26.3 42.7 65.5 42.8 99.2.2 31.1-37.8 55.6-65.8 57.7zm215.2-188.7c12.4 10.9-16.3 35.7-25.5 41.7-19.4 12.8-41.5 13.1-62.8 17.9-18.7 4.2-41.2-9.9-56.6-19.3-12.4-7.5-44.6-29.6-16.8-44.6 14.4-7.8 32.8 15.1 45.7 20.4 13.6 5.6 41.7 8.4 56.5 3.5 17.5-5.7 21.4-24.3 35.2-32 7.5-4.2 11.7-2.3 17.7 2.7 6.8 6-8.7 11.9 6.6 9.7zm-471.5 33c9.2 3.8 18.1 12.8 28.2 13.7 6.5.6 17.5-2.4 24.7-3.2 17.3-1.9 33.1-11.1 47.8-20.3 10.7-6.7 29.3-32.2 43.1-29.6 23.5 4.4 5.1 31.9-4.1 39.7-26 22-56.7 37.8-90.5 42.1-16.1 2.1-29.7-2.2-44.4-9.1-7.7-3.6-17.9-3.3-21-13.7-3.1-10.2 4.2-19.2 16.2-19.6z"/></symbol></svg>